<svg id="Layer_1" data-name="Layer 1" xmlns="http://www.w3.org/2000/svg" viewBox="0 0 130 130"><defs><style>.cls-1{fill:#332a6e;}.cls-2{fill:#f38020;}</style></defs><path class="cls-1" d="M55.92,60.66h8V74.05h5.76V60.66h8v-4.6H55.92Zm29.79,6.2H99.5v-4H85.71V60.3h14.53V56.06H80.31v18h20V69.73H85.71Zm38.35-8.93c-.63-.91-1.83-1.48-3.62-1.72a44,44,0,0,0-4.71-.15H103.41v18h5.48v-4.4h6.89c2.14,0,3.59-.05,4.37-.14a8,8,0,0,0,2.6-.65,3.46,3.46,0,0,0,1.47-1.39A10,10,0,0,0,125,62.8c0-2.34-.31-4-.94-4.87m-4.72,6.28a1.19,1.19,0,0,1-.58.68,2.13,2.13,0,0,1-.74.21c-.28,0-1,0-2.28.05h-6.85V60.56h6.85a13.94,13.94,0,0,1,2.86.18,1.19,1.19,0,0,1,.7.65,3.69,3.69,0,0,1,.2,1.41,4.76,4.76,0,0,1-.16,1.41"/><path class="cls-1" d="M53.65,65.4a3.21,3.21,0,0,0-1.36-1.58A6.18,6.18,0,0,0,50,63.16c-1-.11-2.84-.21-5.66-.3a51.23,51.23,0,0,1-5.65-.32A1,1,0,0,1,38,61.41a1.06,1.06,0,0,1,.74-1.17A22.56,22.56,0,0,1,42.85,60c1.87,0,3.1,0,3.68,0a2.93,2.93,0,0,1,1.22.27.83.83,0,0,1,.38.43,4.18,4.18,0,0,1,.12,1h5.16c0-.4,0-.67,0-.82a5,5,0,0,0-.9-3.38,5.3,5.3,0,0,0-3.3-1.34A44.27,44.27,0,0,0,43.81,56a63.58,63.58,0,0,0-7.24.26,4.3,4.3,0,0,0-2.64,1.21c-.75.82-1.13,2.21-1.13,4.19a5.72,5.72,0,0,0,1,3.77,3.22,3.22,0,0,0,1.61,1,12.49,12.49,0,0,0,3,.36l4.24.18c2.13.1,3.52.16,4.18.16a3.7,3.7,0,0,1,1.69.28,1.16,1.16,0,0,1,.42,1c0,.72-.2,1.16-.59,1.32a3.19,3.19,0,0,1-1.08.2c-.45,0-1.8,0-4.05,0s-3.43,0-3.84-.07a2.11,2.11,0,0,1-1-.29c-.36-.25-.53-.81-.53-1.69H32.64v.83A7.68,7.68,0,0,0,33,71.6a3,3,0,0,0,1.36,1.49,7.64,7.64,0,0,0,2.83.74Q39.1,74,43,74q4.71,0,6.45-.15a7.39,7.39,0,0,0,2.5-.59A3.16,3.16,0,0,0,53.38,72a7.9,7.9,0,0,0,.67-3.68,8.32,8.32,0,0,0-.4-2.89"/><path class="cls-2" d="M25,55.83,18.7,69.08a.71.71,0,0,1-.59.23c-.25,0-.61-.08-.65-.23L11,55.83H5Q6.13,58.44,7.26,61q2,4.55,3.28,7.32a18.91,18.91,0,0,0,2.24,4.05,5.67,5.67,0,0,0,2.37,1.43,9.92,9.92,0,0,0,2.89.34A9.91,9.91,0,0,0,21,73.82a5.86,5.86,0,0,0,2.38-1.42,21.11,21.11,0,0,0,2.22-4.07q1.43-3,3.31-7.32,1.48-3.39,2.22-5.18Z"/></svg>